<svg xmlns="http://www.w3.org/2000/svg" viewBox="0 0 64 64" role="img" aria-label="TrueSight">
  <defs>
    <linearGradient id="g" x1="10" y1="8" x2="54" y2="56" gradientUnits="userSpaceOnUse">
      <stop stop-color="#2563eb"/>
      <stop offset=".55" stop-color="#06b6d4"/>
      <stop offset="1" stop-color="#7c3aed"/>
    </linearGradient>
  </defs>
  <rect width="64" height="64" rx="18" fill="#08111f"/>
  <path d="M32 9 52 17v14c0 12-8.4 20.5-20 24-11.6-3.5-20-12-20-24V17l20-8Z" fill="url(#g)"/>
  <path d="M20 28c4.8-3 9.2-3 12 0 2.8-3 7.2-3 12 0v14c-4.8-2.6-9.2-2.6-12 0-2.8-2.6-7.2-2.6-12 0V28Z" fill="#fff" opacity=".95"/>
  <path d="M32 28v14M24 23h16" stroke="#08111f" stroke-width="3" stroke-linecap="round"/>
  <circle cx="22" cy="18" r="2.5" fill="#f59e0b"/>
  <circle cx="43" cy="19" r="2.5" fill="#f59e0b"/>
  <path d="M24.5 18h15" stroke="#f59e0b" stroke-width="2" stroke-linecap="round" opacity=".75"/>
</svg>
