<svg xmlns="http://www.w3.org/2000/svg" viewBox="0 0 264 72" role="img" aria-label="TrueSight Classroom Integrity">
  <defs><linearGradient id="g" x1="8" y1="8" x2="62" y2="62"><stop stop-color="#2563eb"/><stop offset=".55" stop-color="#06b6d4"/><stop offset="1" stop-color="#7c3aed"/></linearGradient></defs>
  <rect x="4" y="4" width="64" height="64" rx="18" fill="#f8fbff"/>
  <path d="M36 12 56 20v14c0 12-8.4 20.5-20 24-11.6-3.5-20-12-20-24V20l20-8Z" fill="url(#g)"/>
  <path d="M24 31c4.8-3 9.2-3 12 0 2.8-3 7.2-3 12 0v14c-4.8-2.6-9.2-2.6-12 0-2.8-2.6-7.2-2.6-12 0V31Z" fill="#fff"/>
  <path d="M36 31v14M28 26h16" stroke="#0f172a" stroke-width="3" stroke-linecap="round"/>
  <circle cx="26" cy="21" r="2.5" fill="#f59e0b"/><circle cx="47" cy="22" r="2.5" fill="#f59e0b"/>
  <text x="84" y="35" fill="#0f172a" font-family="Sora, Segoe UI, Arial, sans-serif" font-size="25" font-weight="800">TrueSight</text>
  <text x="86" y="53" fill="#526172" font-family="Sora, Segoe UI, Arial, sans-serif" font-size="11" font-weight="700" letter-spacing="1.3">CLASSROOM INTEGRITY</text>
</svg>
