<svg xmlns="http://www.w3.org/2000/svg" viewBox="0 0 512 512">
  <rect width="512" height="512" rx="112" fill="#111827"/>
  <circle cx="378" cy="126" r="82" fill="#22d3ee" opacity=".9"/>
  <circle cx="132" cy="386" r="98" fill="#8b5cf6" opacity=".86"/>
  <path fill="#f8fafc" d="M284.8 441.2c-10.2 12.9-30.8 5.7-30.8-10.7V313.2c0-19.1-15.5-34.6-34.6-34.6H93.1c-14 0-22.2-15.8-14-27.2l85.5-119.7c16.3-22.8 0-54.4-28.1-54.4H47.9c-14 0-22.2-15.8-14-27.2L92.8 7.1C96 2.6 101.3 0 106.9 0h298.6c14 0 22.2 15.8 14 27.2l-85.5 119.7c-16.3 22.8 0 54.4 28.1 54.4h102.8c14.4 0 22.4 16.6 13.6 27.9L284.8 441.2Z" transform="translate(0 38) scale(.98)"/>
  <path fill="#22d3ee" d="M169 164h174c9.4 0 17 7.6 17 17s-7.6 17-17 17H169c-9.4 0-17-7.6-17-17s7.6-17 17-17Zm37 74h137c9.4 0 17 7.6 17 17s-7.6 17-17 17H206c-9.4 0-17-7.6-17-17s7.6-17 17-17Z" opacity=".78"/>
</svg>
