<svg xmlns="http://www.w3.org/2000/svg" viewBox="0 0 512 512" role="img" aria-label="TrueSight">
  <defs>
    <linearGradient id="g" x1="80" y1="62" x2="432" y2="450" gradientUnits="userSpaceOnUse">
      <stop stop-color="#2563eb"/>
      <stop offset=".48" stop-color="#06b6d4"/>
      <stop offset="1" stop-color="#7c3aed"/>
    </linearGradient>
  </defs>
  <rect width="512" height="512" rx="112" fill="#08111f"/>
  <path d="M256 72 414 136v112c0 93-66 160-158 190-92-30-158-97-158-190V136l158-64Z" fill="url(#g)"/>
  <path d="M160 223c38-24 73-24 96 0 23-24 58-24 96 0v111c-38-20-73-20-96 0-23-20-58-20-96 0V223Z" fill="#fff" opacity=".96"/>
  <path d="M256 223v111M196 183h120" stroke="#08111f" stroke-width="24" stroke-linecap="round"/>
  <circle cx="178" cy="145" r="20" fill="#f59e0b"/>
  <circle cx="334" cy="153" r="20" fill="#f59e0b"/>
  <path d="M198 148h116" stroke="#f59e0b" stroke-width="16" stroke-linecap="round" opacity=".78"/>
</svg>
